<?xml version="1.0" standalone="no"?>
<!DOCTYPE svg PUBLIC "-//W3C//DTD SVG 20010904//EN"
 "http://www.w3.org/TR/2001/REC-SVG-20010904/DTD/svg10.dtd">
<svg version="1.0" xmlns="http://www.w3.org/2000/svg"
 width="140.000000pt" height="70.000000pt" viewBox="0 0 140.000000 70.000000"
 preserveAspectRatio="xMidYMid meet">

<g transform="translate(0.000000,70.000000) scale(0.100000,-0.100000)"
fill="#000000" stroke="none">
<path d="M264 486 c-17 -13 -19 -27 -19 -121 0 -94 2 -108 19 -121 46 -33 96
-6 96 52 0 42 -27 48 -32 7 -2 -20 -9 -28 -23 -28 -19 0 -20 7 -20 90 0 83 1
90 20 90 13 0 21 -8 23 -22 5 -35 32 -29 32 6 0 54 -52 79 -96 47z"/>
<path d="M466 485 c-21 -22 -29 -75 -23 -158 5 -77 19 -97 68 -97 15 0 31 -4
34 -10 11 -18 35 -11 35 10 0 11 -3 20 -7 20 -5 0 -6 47 -5 104 3 95 2 106
-17 125 -25 25 -63 27 -85 6z m59 -120 c0 -83 -1 -90 -20 -90 -18 0 -20 8 -23
79 -3 91 1 109 25 104 16 -3 18 -15 18 -93z"/>
<path d="M660 365 c0 -128 1 -135 20 -135 18 0 20 7 20 56 0 47 3 55 18 52 13
-2 18 -15 20 -56 3 -44 6 -52 23 -52 16 0 19 7 19 54 0 36 -5 58 -15 66 -11 9
-13 15 -5 20 6 4 14 25 17 47 7 54 -20 83 -77 83 l-40 0 0 -135z m75 55 c0
-25 -5 -36 -17 -38 -15 -3 -18 4 -18 38 0 34 3 41 18 38 12 -2 17 -13 17 -38z"/>
<path d="M870 365 l0 -135 55 0 c48 0 55 2 55 20 0 16 -7 20 -35 20 -34 0 -35
1 -35 40 0 36 3 40 25 40 18 0 25 5 25 20 0 15 -7 20 -25 20 -22 0 -25 4 -25
35 0 33 2 35 35 35 28 0 35 4 35 20 0 18 -7 20 -55 20 l-55 0 0 -135z"/>
<path d="M678 213 c6 -2 18 -2 25 0 6 3 1 5 -13 5 -14 0 -19 -2 -12 -5z"/>
<path d="M721 190 c0 -29 1 -32 10 -17 7 11 7 23 0 35 -9 14 -10 11 -10 -18z"/>
<path d="M757 201 c-4 -17 -3 -21 5 -13 5 5 8 16 6 23 -3 8 -7 3 -11 -10z"/>
<path d="M803 213 c9 -2 17 -8 17 -13 0 -5 -8 -11 -17 -13 -15 -4 -15 -5 2 -7
l20 -1 -20 -9 c-19 -8 -19 -9 3 -9 18 -1 22 4 22 29 0 25 -4 30 -22 29 -17 -1
-19 -2 -5 -6z"/>
<path d="M840 190 c0 -25 4 -30 23 -29 21 0 21 1 2 8 l-20 8 20 5 c16 5 17 6
3 7 -10 0 -18 5 -18 10 0 5 8 12 18 14 13 4 11 5 -5 6 -19 1 -23 -4 -23 -29z"/>
<path d="M897 213 c-3 -5 5 -8 18 -8 13 0 21 3 18 8 -2 4 -10 7 -18 7 -8 0
-16 -3 -18 -7z"/>
<path d="M955 209 c-4 -6 -4 -13 -1 -16 3 -4 6 -1 6 6 0 8 8 11 20 8 11 -3 18
-1 14 4 -7 12 -31 11 -39 -2z"/>
<path d="M1014 205 c-10 -24 4 -45 28 -44 22 2 22 2 -2 7 -23 4 -24 5 -5 13
17 6 17 8 3 8 -10 1 -18 5 -18 10 0 5 8 12 18 14 16 4 16 5 -1 6 -10 0 -20 -6
-23 -14z"/>
<path d="M1070 216 c0 -2 9 -6 20 -9 11 -3 18 -1 14 4 -5 9 -34 13 -34 5z"/>
<path d="M678 183 c7 -3 16 -2 19 1 4 3 -2 6 -13 5 -11 0 -14 -3 -6 -6z"/>
<path d="M890 182 c0 -18 29 -27 43 -13 9 9 8 11 -7 5 -11 -4 -21 -2 -27 7 -6
10 -9 11 -9 1z"/>
<path d="M957 168 c2 -5 10 -8 18 -8 8 0 16 3 18 8 3 4 -5 7 -18 7 -13 0 -21
-3 -18 -7z"/>
<path d="M1085 170 c-16 -7 -17 -9 -3 -9 9 -1 20 4 23 9 7 11 7 11 -20 0z"/>
<path d="M678 163 c6 -2 18 -2 25 0 6 3 1 5 -13 5 -14 0 -19 -2 -12 -5z"/>
</g>
</svg>
